<mxfile host="app.diagrams.net" modified="2024-04-04T15:30:41.429Z" agent="Mozilla/5.0 (Macintosh; Intel Mac OS X 10_15_7) AppleWebKit/537.36 (KHTML, like Gecko) Chrome/120.0.0.0 Whale/3.24.223.18 Safari/537.36" etag="n4CLbfV6NksERJ5JxvZ8" version="24.2.2" type="github">
  <diagram name="페이지-1" id="J1Tt04icmtqUt2nDNbsf">
    <mxGraphModel dx="1548" dy="997" grid="1" gridSize="10" guides="1" tooltips="1" connect="1" arrows="1" fold="1" page="1" pageScale="1" pageWidth="1169" pageHeight="827" math="0" shadow="0">
      <root>
        <mxCell id="0" />
        <mxCell id="1" parent="0" />
        <mxCell id="ob_Er8QgK_pdc9j6Z_gC-1" value="" style="rounded=1;whiteSpace=wrap;html=1;fillColor=#f5f5f5;fontColor=#333333;strokeColor=#666666;" parent="1" vertex="1">
          <mxGeometry x="140" y="120" width="300" height="390" as="geometry" />
        </mxCell>
        <mxCell id="ob_Er8QgK_pdc9j6Z_gC-11" value="&lt;b&gt;Kafka Streams&lt;/b&gt;" style="text;html=1;align=center;verticalAlign=middle;whiteSpace=wrap;rounded=0;" parent="1" vertex="1">
          <mxGeometry x="245" y="120" width="110" height="30" as="geometry" />
        </mxCell>
        <mxCell id="y1DtSaGLLxPXwSzvWBOs-9" style="edgeStyle=orthogonalEdgeStyle;rounded=0;orthogonalLoop=1;jettySize=auto;html=1;entryX=0.5;entryY=0;entryDx=0;entryDy=0;" parent="1" source="y1DtSaGLLxPXwSzvWBOs-2" target="y1DtSaGLLxPXwSzvWBOs-3" edge="1">
          <mxGeometry relative="1" as="geometry" />
        </mxCell>
        <mxCell id="y1DtSaGLLxPXwSzvWBOs-2" value="Inbound(Source)" style="rounded=0;whiteSpace=wrap;html=1;fillColor=#d5e8d4;strokeColor=#82b366;" parent="1" vertex="1">
          <mxGeometry x="180" y="150" width="120" height="40" as="geometry" />
        </mxCell>
        <mxCell id="y1DtSaGLLxPXwSzvWBOs-10" style="edgeStyle=orthogonalEdgeStyle;rounded=0;orthogonalLoop=1;jettySize=auto;html=1;entryX=0.5;entryY=0;entryDx=0;entryDy=0;" parent="1" source="y1DtSaGLLxPXwSzvWBOs-3" target="y1DtSaGLLxPXwSzvWBOs-4" edge="1">
          <mxGeometry relative="1" as="geometry" />
        </mxCell>
        <mxCell id="y1DtSaGLLxPXwSzvWBOs-3" value="filter" style="rounded=0;whiteSpace=wrap;html=1;fillColor=#e1d5e7;strokeColor=#9673a6;" parent="1" vertex="1">
          <mxGeometry x="180" y="210" width="120" height="40" as="geometry" />
        </mxCell>
        <mxCell id="y1DtSaGLLxPXwSzvWBOs-16" style="edgeStyle=orthogonalEdgeStyle;rounded=0;orthogonalLoop=1;jettySize=auto;html=1;entryX=0;entryY=0.5;entryDx=0;entryDy=0;" parent="1" source="y1DtSaGLLxPXwSzvWBOs-4" target="y1DtSaGLLxPXwSzvWBOs-5" edge="1">
          <mxGeometry relative="1" as="geometry">
            <Array as="points">
              <mxPoint x="160" y="290" />
              <mxPoint x="160" y="350" />
            </Array>
          </mxGeometry>
        </mxCell>
        <mxCell id="y1DtSaGLLxPXwSzvWBOs-18" style="edgeStyle=orthogonalEdgeStyle;rounded=0;orthogonalLoop=1;jettySize=auto;html=1;entryX=0.5;entryY=0;entryDx=0;entryDy=0;" parent="1" source="y1DtSaGLLxPXwSzvWBOs-4" target="y1DtSaGLLxPXwSzvWBOs-17" edge="1">
          <mxGeometry relative="1" as="geometry">
            <Array as="points">
              <mxPoint x="370" y="280" />
            </Array>
          </mxGeometry>
        </mxCell>
        <mxCell id="y1DtSaGLLxPXwSzvWBOs-4" value="Branch" style="rounded=0;whiteSpace=wrap;html=1;fillColor=#e1d5e7;strokeColor=#9673a6;" parent="1" vertex="1">
          <mxGeometry x="180" y="270" width="120" height="40" as="geometry" />
        </mxCell>
        <mxCell id="y1DtSaGLLxPXwSzvWBOs-12" style="edgeStyle=orthogonalEdgeStyle;rounded=0;orthogonalLoop=1;jettySize=auto;html=1;entryX=0.5;entryY=0;entryDx=0;entryDy=0;" parent="1" source="y1DtSaGLLxPXwSzvWBOs-5" target="y1DtSaGLLxPXwSzvWBOs-6" edge="1">
          <mxGeometry relative="1" as="geometry" />
        </mxCell>
        <mxCell id="y1DtSaGLLxPXwSzvWBOs-5" value="Merge" style="rounded=0;whiteSpace=wrap;html=1;fillColor=#e1d5e7;strokeColor=#9673a6;" parent="1" vertex="1">
          <mxGeometry x="180" y="330" width="120" height="40" as="geometry" />
        </mxCell>
        <mxCell id="y1DtSaGLLxPXwSzvWBOs-14" style="edgeStyle=orthogonalEdgeStyle;rounded=0;orthogonalLoop=1;jettySize=auto;html=1;exitX=0.5;exitY=1;exitDx=0;exitDy=0;entryX=0.5;entryY=0;entryDx=0;entryDy=0;" parent="1" source="y1DtSaGLLxPXwSzvWBOs-6" target="y1DtSaGLLxPXwSzvWBOs-8" edge="1">
          <mxGeometry relative="1" as="geometry" />
        </mxCell>
        <mxCell id="y1DtSaGLLxPXwSzvWBOs-6" value="Transform" style="rounded=0;whiteSpace=wrap;html=1;fillColor=#e1d5e7;strokeColor=#9673a6;" parent="1" vertex="1">
          <mxGeometry x="180" y="393.5" width="120" height="40" as="geometry" />
        </mxCell>
        <mxCell id="y1DtSaGLLxPXwSzvWBOs-8" value="Outbound(Sink)" style="rounded=0;whiteSpace=wrap;html=1;fillColor=#dae8fc;strokeColor=#6c8ebf;" parent="1" vertex="1">
          <mxGeometry x="180" y="454" width="120" height="40" as="geometry" />
        </mxCell>
        <mxCell id="y1DtSaGLLxPXwSzvWBOs-19" style="edgeStyle=orthogonalEdgeStyle;rounded=0;orthogonalLoop=1;jettySize=auto;html=1;entryX=1;entryY=0.75;entryDx=0;entryDy=0;" parent="1" source="y1DtSaGLLxPXwSzvWBOs-17" target="y1DtSaGLLxPXwSzvWBOs-5" edge="1">
          <mxGeometry relative="1" as="geometry">
            <Array as="points">
              <mxPoint x="370" y="360" />
            </Array>
          </mxGeometry>
        </mxCell>
        <mxCell id="y1DtSaGLLxPXwSzvWBOs-17" value="Enrich" style="rounded=0;whiteSpace=wrap;html=1;fillColor=#e1d5e7;strokeColor=#9673a6;" parent="1" vertex="1">
          <mxGeometry x="310" y="300" width="120" height="40" as="geometry" />
        </mxCell>
      </root>
    </mxGraphModel>
  </diagram>
</mxfile>
